<mxfile host="app.diagrams.net" modified="2021-08-20T01:30:58.134Z" agent="5.0 (Windows NT 10.0; Win64; x64) AppleWebKit/537.36 (KHTML, like Gecko) Chrome/91.0.4472.101 Safari/537.36" etag="12CETvfp0arcWwRhbp-a" version="14.9.8" type="github">
  <diagram id="kcH3Z-TPnhh__8kGFMRs" name="Page-1">
    <mxGraphModel dx="1422" dy="761" grid="1" gridSize="10" guides="1" tooltips="1" connect="1" arrows="1" fold="1" page="1" pageScale="1" pageWidth="827" pageHeight="1169" math="0" shadow="0">
      <root>
        <mxCell id="0" />
        <mxCell id="1" parent="0" />
        <mxCell id="z7qx069De_z7DD4eOs79-14" value="&lt;pre style=&quot;margin: 0px 12px 0px 0px ; padding: 0px ; font-weight: 400 ; font-size: 32px ; position: relative ; border: none ; background: rgb(247 , 248 , 249) ; word-break: break-word ; font-family: &amp;#34;courier&amp;#34; , &amp;#34;courier new&amp;#34; , monospace ; overflow-wrap: break-word ; font-style: normal ; letter-spacing: normal ; text-indent: 0px ; text-transform: none ; word-spacing: 0px&quot;&gt;&lt;br&gt;&lt;/pre&gt;" style="text;whiteSpace=wrap;html=1;fontSize=32;" vertex="1" parent="1">
          <mxGeometry x="270" y="375" width="220" height="50" as="geometry" />
        </mxCell>
        <mxCell id="z7qx069De_z7DD4eOs79-16" value="" style="endArrow=classic;html=1;fontSize=32;" edge="1" parent="1">
          <mxGeometry width="50" height="50" relative="1" as="geometry">
            <mxPoint x="270" y="410" as="sourcePoint" />
            <mxPoint x="270" y="380" as="targetPoint" />
          </mxGeometry>
        </mxCell>
        <mxCell id="z7qx069De_z7DD4eOs79-17" value="" style="endArrow=classic;html=1;fontSize=32;" edge="1" parent="1">
          <mxGeometry width="50" height="50" relative="1" as="geometry">
            <mxPoint x="294.5" y="300" as="sourcePoint" />
            <mxPoint x="294.5" y="330" as="targetPoint" />
          </mxGeometry>
        </mxCell>
        <mxCell id="z7qx069De_z7DD4eOs79-18" value="判断3位start" style="text;html=1;align=center;verticalAlign=middle;resizable=0;points=[];autosize=1;strokeColor=none;fontSize=20;" vertex="1" parent="1">
          <mxGeometry x="205" y="414" width="130" height="30" as="geometry" />
        </mxCell>
        <mxCell id="z7qx069De_z7DD4eOs79-19" value="剩余子串start" style="text;html=1;align=center;verticalAlign=middle;resizable=0;points=[];autosize=1;strokeColor=none;fontSize=20;" vertex="1" parent="1">
          <mxGeometry x="236" y="266" width="130" height="30" as="geometry" />
        </mxCell>
        <mxCell id="z7qx069De_z7DD4eOs79-23" value="0 2 1 A b c 9 A b c 1" style="text;html=1;align=center;verticalAlign=middle;resizable=0;points=[];autosize=1;strokeColor=none;fontSize=32;fontColor=#000000;fontStyle=0;fontFamily=Times New Roman;" vertex="1" parent="1">
          <mxGeometry x="257" y="335" width="280" height="40" as="geometry" />
        </mxCell>
        <mxCell id="z7qx069De_z7DD4eOs79-24" value="" style="endArrow=classic;html=1;fontSize=32;fontColor=#FF250D;" edge="1" parent="1">
          <mxGeometry width="50" height="50" relative="1" as="geometry">
            <mxPoint x="450" y="410" as="sourcePoint" />
            <mxPoint x="450" y="380" as="targetPoint" />
          </mxGeometry>
        </mxCell>
        <mxCell id="z7qx069De_z7DD4eOs79-27" value="" style="rounded=0;whiteSpace=wrap;html=1;fontFamily=Times New Roman;fontSize=32;fontColor=#FF250D;fillColor=none;" vertex="1" parent="1">
          <mxGeometry x="251" y="332.5" width="84" height="45" as="geometry" />
        </mxCell>
        <mxCell id="z7qx069De_z7DD4eOs79-28" value="" style="rounded=0;whiteSpace=wrap;html=1;fontFamily=Times New Roman;fontSize=32;fontColor=#FF250D;fillColor=none;strokeColor=#FF351F;" vertex="1" parent="1">
          <mxGeometry x="310" y="340" width="230" height="30" as="geometry" />
        </mxCell>
        <mxCell id="z7qx069De_z7DD4eOs79-29" value="contains" style="text;html=1;strokeColor=none;fillColor=none;align=center;verticalAlign=middle;whiteSpace=wrap;rounded=0;fontFamily=Times New Roman;fontSize=28;fontColor=#FF250D;" vertex="1" parent="1">
          <mxGeometry x="310" y="280" width="110" height="46" as="geometry" />
        </mxCell>
        <mxCell id="z7qx069De_z7DD4eOs79-30" value="最后一次判断" style="text;html=1;strokeColor=none;fillColor=none;align=center;verticalAlign=middle;whiteSpace=wrap;rounded=0;fontFamily=Times New Roman;fontSize=16;fontColor=#FF250D;" vertex="1" parent="1">
          <mxGeometry x="400" y="419" width="120" height="20" as="geometry" />
        </mxCell>
      </root>
    </mxGraphModel>
  </diagram>
</mxfile>
